<svg id="eAfTc35RPvi1" xmlns="http://www.w3.org/2000/svg" xmlns:xlink="http://www.w3.org/1999/xlink" viewBox="0 0 96 96" shape-rendering="geometricPrecision" text-rendering="geometricPrecision" project-id="5d8fcd49b7354894b4aca161fdd39031" export-id="8d15cded5d7642eabb3356fb638b43eb" cached="false" width="96" height="96">
<style><![CDATA[
#eAfTc35RPvi4 {animation: eAfTc35RPvi4_s_p 3000ms linear infinite normal forwards}@keyframes eAfTc35RPvi4_s_p { 0% {stroke: #403d39} 50% {stroke: #eb5e28} 100% {stroke: #403d39}} #eAfTc35RPvi5 {animation: eAfTc35RPvi5_s_p 3000ms linear infinite normal forwards}@keyframes eAfTc35RPvi5_s_p { 0% {stroke: #403d39} 50% {stroke: #eb5e28} 100% {stroke: #403d39}} #eAfTc35RPvi6 {animation: eAfTc35RPvi6_s_p 3000ms linear infinite normal forwards}@keyframes eAfTc35RPvi6_s_p { 0% {stroke: #403d39} 50% {stroke: #eb5e28} 100% {stroke: #403d39}} #eAfTc35RPvi7 {animation: eAfTc35RPvi7_s_p 3000ms linear infinite normal forwards}@keyframes eAfTc35RPvi7_s_p { 0% {stroke: #403d39} 50% {stroke: #eb5e28} 100% {stroke: #403d39}} #eAfTc35RPvi8 {animation: eAfTc35RPvi8_s_p 3000ms linear infinite normal forwards}@keyframes eAfTc35RPvi8_s_p { 0% {stroke: #403d39} 50% {stroke: #eb5e28} 100% {stroke: #403d39}} #eAfTc35RPvi9 {animation: eAfTc35RPvi9_s_p 3000ms linear infinite normal forwards}@keyframes eAfTc35RPvi9_s_p { 0% {stroke: #403d39} 50% {stroke: #eb5e28} 100% {stroke: #403d39}} #eAfTc35RPvi10 {animation: eAfTc35RPvi10_s_p 3000ms linear infinite normal forwards}@keyframes eAfTc35RPvi10_s_p { 0% {stroke: #403d39} 50% {stroke: #eb5e28} 100% {stroke: #403d39}} #eAfTc35RPvi11 {animation: eAfTc35RPvi11_s_p 3000ms linear infinite normal forwards}@keyframes eAfTc35RPvi11_s_p { 0% {stroke: #403d39} 50% {stroke: #eb5e28} 100% {stroke: #403d39}} #eAfTc35RPvi12 {animation: eAfTc35RPvi12_s_p 3000ms linear infinite normal forwards}@keyframes eAfTc35RPvi12_s_p { 0% {stroke: #403d39} 50% {stroke: #eb5e28} 100% {stroke: #403d39}} #eAfTc35RPvi13 {animation: eAfTc35RPvi13_s_p 3000ms linear infinite normal forwards}@keyframes eAfTc35RPvi13_s_p { 0% {stroke: #403d39} 50% {stroke: #eb5e28} 100% {stroke: #403d39}} #eAfTc35RPvi14 {animation: eAfTc35RPvi14_s_p 3000ms linear infinite normal forwards}@keyframes eAfTc35RPvi14_s_p { 0% {stroke: #403d39} 50% {stroke: #eb5e28} 100% {stroke: #403d39}} #eAfTc35RPvi15 {animation: eAfTc35RPvi15_s_p 3000ms linear infinite normal forwards}@keyframes eAfTc35RPvi15_s_p { 0% {stroke: #403d39} 50% {stroke: #eb5e28} 100% {stroke: #403d39}} #eAfTc35RPvi16 {animation: eAfTc35RPvi16_s_p 3000ms linear infinite normal forwards}@keyframes eAfTc35RPvi16_s_p { 0% {stroke: #403d39} 50% {stroke: #eb5e28} 100% {stroke: #403d39}} #eAfTc35RPvi17 {animation: eAfTc35RPvi17_s_p 3000ms linear infinite normal forwards}@keyframes eAfTc35RPvi17_s_p { 0% {stroke: #403d39} 50% {stroke: #eb5e28} 100% {stroke: #403d39}} #eAfTc35RPvi18 {animation: eAfTc35RPvi18_s_p 3000ms linear infinite normal forwards}@keyframes eAfTc35RPvi18_s_p { 0% {stroke: #403d39} 50% {stroke: #eb5e28} 100% {stroke: #403d39}} #eAfTc35RPvi19 {animation: eAfTc35RPvi19_s_p 3000ms linear infinite normal forwards}@keyframes eAfTc35RPvi19_s_p { 0% {stroke: #403d39} 50% {stroke: #eb5e28;animation-timing-function: cubic-bezier(0.42,0,0.58,1)} 100% {stroke: #403d39}} #eAfTc35RPvi20 {animation: eAfTc35RPvi20_s_p 3000ms linear infinite normal forwards}@keyframes eAfTc35RPvi20_s_p { 0% {stroke: #403d39} 50% {stroke: #eb5e28} 100% {stroke: #403d39}} #eAfTc35RPvi29_tr {animation: eAfTc35RPvi29_tr__tr 3000ms linear infinite normal forwards}@keyframes eAfTc35RPvi29_tr__tr { 0% {transform: translate(135.33781px,207.03926px) rotate(720deg);animation-timing-function: cubic-bezier(0.415,0.08,0.115,0.955)} 100% {transform: translate(135.33781px,207.03926px) rotate(439.480519deg)}} #eAfTc35RPvi29 {animation: eAfTc35RPvi29_f_p 3000ms linear infinite normal forwards}@keyframes eAfTc35RPvi29_f_p { 0% {fill: #d2dbed} 100% {fill: #d2dbed}} #eAfTc35RPvi30_tr {animation: eAfTc35RPvi30_tr__tr 3000ms linear infinite normal forwards}@keyframes eAfTc35RPvi30_tr__tr { 0% {transform: translate(11.12px,29.9px) rotate(-720deg);animation-timing-function: cubic-bezier(0.415,0.08,0.115,0.955)} 100% {transform: translate(11.12px,29.9px) rotate(-439.480519deg)}}
]]></style>
<defs><filter id="eAfTc35RPvi2-filter" x="-150%" width="400%" y="-150%" height="400%"><feColorMatrix id="eAfTc35RPvi2-filter-hue-rotate-0" type="hueRotate" values="0" result="result"/></filter></defs><g transform="translate(23.999998 23.999995)" clip-path="url(#eAfTc35RPvi21)" filter="url(#eAfTc35RPvi2-filter)"><g><path id="eAfTc35RPvi4" d="M17.1255,32.8386L30.8746,42.188c.5804.3782,1.2764.5384,1.964.4516.659-.0704,1.2648-.3944,1.6892-.9034l7.1494-8.8976" fill="none" stroke="#403d39" stroke-width="2" stroke-linecap="round" stroke-linejoin="round"/><path id="eAfTc35RPvi5" d="M5.3407,32.8386c-1.04184.1042-2.0824-.2098-2.89276-.8728s-1.32415-1.6208-1.42834-2.6626.20977-2.0824.8728-2.8928s1.6208-1.3242,2.66264-1.4284" fill="none" stroke="#403d39" stroke-width="2" stroke-linecap="round" stroke-linejoin="round"/><path id="eAfTc35RPvi6" d="M28.7336,40.6952h-23.39286c-1.04184,0-2.041-.414-2.7777-1.1506s-1.15056-1.7358-1.15056-2.7778c0-1.0418.41387-2.041,1.15056-2.7776.7367-.7368,1.73586-1.1506,2.7777-1.1506h37.31866c1.0418,0,2.041.4138,2.7776,1.1506.7368.7366,1.1506,1.7358,1.1506,2.7776c0,1.042-.4138,2.0412-1.1506,2.7778-.7366.7366-1.7358,1.1506-2.7776,1.1506h-7.228" fill="none" stroke="#403d39" stroke-width="2" stroke-linecap="round" stroke-linejoin="round"/><path id="eAfTc35RPvi7" d="M43.445,25.0606c1.0418.1042,1.9996.618,2.6626,1.4284s.977,1.8508.8728,2.8928c-.1042,1.0418-.618,1.9996-1.4284,2.6626-.8102.663-1.8508.977-2.8926.8728" fill="none" stroke="#403d39" stroke-width="2" stroke-linecap="round" stroke-linejoin="round"/><path id="eAfTc35RPvi8" d="M5.3407,40.6952v1.964c0,1.042.41386,2.041,1.15056,2.7778.7367.7366,1.73586,1.1506,2.77772,1.1506h29.46202c1.0418,0,2.041-.414,2.7778-1.1506.7366-.7368,1.1504-1.7358,1.1504-2.7778v-1.964" fill="none" stroke="#403d39" stroke-width="2" stroke-linecap="round" stroke-linejoin="round"/><path id="eAfTc35RPvi9" d="M42.6592,19.0896C42.6592,8.77792,34.3118,1.41241,24,1.41241s-18.6593,7.36551-18.6593,17.67719h37.3185Z" fill="none" stroke="#403d39" stroke-width="2" stroke-linecap="round" stroke-linejoin="round"/><path id="eAfTc35RPvi10" d="M5.34073,19.0897c-.7633.0547-1.48128.3827-2.0224.9237-.5411.5412-.86908,1.2592-.9238,2.0224c0,2.2784,2.51408,4.5766,5.8924,1.9642.46188.9004,1.1666,1.6536,2.03447,2.1744.8678.5206,1.864.788,2.8759.7718c1.0279.1126,2.0645-.1144,2.9512-.6464s1.5748-1.3398,1.9591-2.2998c.6032.9978,1.4769,1.8044,2.5198,2.3258s2.2124.7366,3.3726.6204c1.1602.1162,2.3296-.099,3.3726-.6204c1.0428-.5214,1.9166-1.328,2.5198-2.3258.3844.96,1.0724,1.7678,1.9592,2.2998.8866.532,1.9232.759,2.9512.6464c1.0118.0162,2.0082-.2512,2.876-.7718.8678-.5208,1.5724-1.274,2.0344-2.1744c3.3782,2.632,5.8924.334,5.8924-1.9642-.0548-.7632-.3828-1.4812-.9238-2.0224-.5412-.541-1.2592-.869-2.0224-.9237" fill="none" stroke="#403d39" stroke-width="2" stroke-linecap="round" stroke-linejoin="round"/><path id="eAfTc35RPvi11" d="M14.1793,11.351c-.2712,0-.491-.2199-.491-.4911s.2198-.491.491-.491" fill="none" stroke="#403d39" stroke-width="2"/><path id="eAfTc35RPvi12" d="M14.1793,11.351c.2712,0,.491-.2199.491-.4911s-.2198-.491-.491-.491" fill="none" stroke="#403d39" stroke-width="2"/><path id="eAfTc35RPvi13" d="M33.8206,11.351c-.2712,0-.491-.2199-.491-.4911s.2198-.491.491-.491" fill="none" stroke="#403d39" stroke-width="2"/><path id="eAfTc35RPvi14" d="M33.8206,11.351c.2712,0,.4912-.2199.4912-.4911s-.22-.491-.4912-.491" fill="none" stroke="#403d39" stroke-width="2"/><path id="eAfTc35RPvi15" d="M19.0897,8.40475c-.2712,0-.4911-.21984-.4911-.49104s.2199-.49104.4911-.49104" fill="none" stroke="#403d39" stroke-width="2"/><path id="eAfTc35RPvi16" d="M19.0897,8.40475c.2711,0,.491-.21984.491-.49104s-.2199-.49104-.491-.49104" fill="none" stroke="#403d39" stroke-width="2"/><path id="eAfTc35RPvi17" d="M28.9104,8.40475c-.2712,0-.491-.21984-.491-.49104s.2198-.49104.491-.49104" fill="none" stroke="#403d39" stroke-width="2"/><path id="eAfTc35RPvi18" d="M28.9104,8.40475c.2712,0,.491-.21984.491-.49104s-.2198-.49104-.491-.49104" fill="none" stroke="#403d39" stroke-width="2"/><path id="eAfTc35RPvi19" d="M24,11.351c-.2712,0-.491-.2199-.491-.4911s.2198-.491.491-.491" fill="none" stroke="#403d39" stroke-width="2"/><path id="eAfTc35RPvi20" d="M24,11.351c.2712,0,.491-.2199.491-.4911s-.2198-.491-.491-.491" fill="none" stroke="#403d39" stroke-width="2"/></g><clipPath id="eAfTc35RPvi21"><rect width="48" height="48" rx="0" ry="0" fill="#fff"/></clipPath></g><rect style="mix-blend-mode:multiply" width="96" height="48" rx="0" ry="0" transform="translate(0 48)" opacity="0.8" fill="url(#eAfTc35RPvi23-fill)" stroke-width="0"/><g transform="matrix(.274286 0 0 0.274286 49.371429 76.8)"><g transform="matrix(.3 0 0 0.3-18.12243-25.905895)" opacity="0.7" mask="url(#eAfTc35RPvi28)"><mask id="eAfTc35RPvi28" mask-type="alpha" x="-150%" y="-150%" height="400%" width="400%"><g id="eAfTc35RPvi29_tr" transform="translate(135.33781,207.03926) rotate(720)"></g></mask></g><g id="eAfTc35RPvi30_tr" transform="translate(11.12,29.9) rotate(-720)"></g></g></svg>
